<?xml version="1.0" encoding="utf-8"?>
<!-- Generator: Adobe Illustrator 25.3.1, SVG Export Plug-In . SVG Version: 6.00 Build 0)  -->
<svg version="1.1" id="Laag_1" xmlns="http://www.w3.org/2000/svg" xmlns:xlink="http://www.w3.org/1999/xlink" x="0px" y="0px"
	 viewBox="0 0 800 179.3" style="enable-background:new 0 0 800 179.3;" xml:space="preserve">
<style type="text/css">
	.st0{fill-rule:evenodd;clip-rule:evenodd;fill:#006AFF;}
	.st1{fill:#FFFFFF;}
</style>
<g id="Layer_2">
	<g id="Logo_dark">
		<g id="logo_eventix_dark">
			<path id="cheer" class="st0" d="M111.5,36.8v130.5H68V36.8H111.5z M42,84l22.5,84l-42,11.3L0,95.2L42,84z M159.6,0l42,11.3
				l-45,168.1l-42-11.3L159.6,0z"/>
			<path id="eventix" class="st1" d="M691.1,30.6c7.8,0,13.5,5.6,13.5,13s-5.8,13-13.5,13c-7.2,0.4-13.3-5-13.8-12.2
				s5-13.3,12.2-13.8C690,30.6,690.5,30.6,691.1,30.6L691.1,30.6z M458.5,83.2c-10.1,0-17.4,6.6-19.2,17.5l-0.1,0.9l-0.1,1h37.6
				l-0.1-0.9l-0.1-1C475.2,89.2,469.1,83.2,458.5,83.2z M283.4,83.2c-10.1,0-17.4,6.6-19.2,17.5l-0.1,0.9l-0.1,1h37.6l-0.1-0.9
				l-0.1-1C300.1,89.2,294,83.2,283.4,83.2z M702.8,68.2v84.6h-23.5V68.2H702.8z M561.7,66.1h1h1c19,0.8,29.8,12.4,30.2,32.3v54.3
				h-23.7v-50.1c-0.2-11.3-5.2-17.2-14.8-17.6h-1.6H553c-10,0.7-16.6,8-17,19.1v48.6h-23.5V68.2h22.1v14.3l1.5-2.4l0.6-0.9
				c5.7-8.4,13.6-12.7,23.8-13L561.7,66.1z M350.4,68.2l20.4,61.3l20-61.3h25l-31.4,84.6h-27.4l-31.6-84.6H350.4z M738.7,68.2
				l16.4,25.2l16.7-25.2h25.8l-29,41.2l31.4,43.4h-27l-18.8-27.4L735,152.8h-25.7l31.4-43.4l-29-41.2H738.7z M635.9,43.4v24.8h33.6
				v19h-33.6v38.2c0.2,5.9,2.6,9.1,7.2,9.4h1.1h0.5c4.2-0.5,7.3-4,11-11.6l0.5-1.1l17.4,9.5l-0.2,0.4c-8.2,15.4-19.1,23-32.8,23
				c-18.6,0-27.9-9-28.2-27.3V87.2h-12.1v-19h13.1l6.3-24.8L635.9,43.4z M459.3,66.1c12.9,0,23,3.9,30.4,11.8
				c7.1,7.6,10.7,17.5,11,30v4.4v2l0,1h-61.8l0.1,0.9l0.1,0.9c1.5,12,9.5,19.5,21.2,19.8h0.9h0.9l0.9-0.1
				c7.9-0.6,14.2-4.8,18.8-12.5l0.7-1.2l18.5,9.2l-0.1,0.3c-7.8,14.7-21.1,22.1-40,22.1c-13.7,0-24.8-4-33.4-12
				c-8.8-8.1-13-18.7-13-32.3c0-13.1,4.3-23.7,12.9-32.1C435.6,70.3,446.4,66.1,459.3,66.1z M284.2,66.1c12.9,0,23,3.9,30.4,11.8
				c7.1,7.6,10.7,17.5,11,30v4.4v2v1h-61.9l0.1,0.9l0.1,0.9c1.5,12,9.5,19.5,21.2,19.8h0.9h0.9l0.9-0.1c7.9-0.6,14.2-4.8,18.8-12.5
				l0.7-1.2l18.5,9.2l-0.1,0.3c-7.8,14.7-21.1,22.1-40,22.1c-13.7,0-24.8-4-33.4-12c-8.7-8.1-13-18.7-13-32.3
				c0-13.1,4.3-23.7,12.9-32.1C260.5,70.3,271.3,66.1,284.2,66.1z"/>
		</g>
	</g>
</g>
</svg>
